<svg width="80" height="90" xmlns="http://www.w3.org/2000/svg"><g><path d="M79.18 54.227v.002a23.44 23.44 0 0 1-.24.802A22.863 22.863 0 0 1 77.8 57.9c-.136.282-.278.562-.428.839-.206.392-.427.782-.661 1.161a22.744 22.744 0 0 1-2.04 2.832 23.81 23.81 0 0 1-1.634 1.747 23.99 23.99 0 0 1-13.91 6.562 24.222 24.222 0 0 1-3.116.172l-.252-.003h-.028c-.064-.002-.126-.002-.188-.006h-.03l-.197-.007a10.695 10.695 0 0 1-.249-.011 15.804 15.804 0 0 1-.63-.038 5.086 5.086 0 0 1-.256-.02 9.267 9.267 0 0 1-.297-.025l-.055-.005a15.249 15.249 0 0 1-.45-.048c-.19-.022-.379-.047-.567-.074a12.721 12.721 0 0 1-.538-.08 46.376 46.376 0 0 0-.191-.032l-.048-.008a12.54 12.54 0 0 1-.323-.058l-.08-.014a19.812 19.812 0 0 1-.507-.102 27.221 27.221 0 0 1-.544-.12l-.02-.006a20.472 20.472 0 0 1-1.375-.37h-.007a4.255 4.255 0 0 0-.16-.048 4.864 4.864 0 0 0-.19-.062 6.052 6.052 0 0 1-.363-.118 9.775 9.775 0 0 1-.378-.128 23.609 23.609 0 0 1-7.974-4.699l18.919-18.3.971-.937 6.781-6.56-6.87-6.645H20.088l-6.87 6.644L39.89 65.132a23.723 23.723 0 0 1-8.385 4.84 6.728 6.728 0 0 1-.34.109c-.056.018-.11.037-.167.052a11.493 11.493 0 0 1-.583.172c-.106.03-.212.059-.318.086a4.591 4.591 0 0 1-.207.054 7.174 7.174 0 0 1-.384.096 9.18 9.18 0 0 1-.2.046 11.585 11.585 0 0 1-.458.102c-.149.03-.296.062-.444.088a47.782 47.782 0 0 1-.606.11l-.052.008a18.873 18.873 0 0 1-.561.083 11.175 11.175 0 0 1-.6.077 12.21 12.21 0 0 1-.354.036 2.637 2.637 0 0 1-.232.023c-.126.013-.253.023-.38.03a1.78 1.78 0 0 1-.147.013c-.184.012-.368.022-.552.032a28.905 28.905 0 0 1-1.137.026A24.141 24.141 0 0 1 6.967 64.48a23.798 23.798 0 0 1-1.633-1.747 20.625 20.625 0 0 1-.734-.918 23.409 23.409 0 0 1-1.88-2.905 22.635 22.635 0 0 1-2.468-7.334l-.008-.06a22.264 22.264 0 0 1-.24-3.65C.087 42.35 2.21 36.856 6.38 32.538l-.01-.008.382-.37c.068-.074.14-.142.215-.212L39.999-.001l.005.002 33.032 31.947.054.051c.054.052.108.106.16.16l.382.37-.009.009a22.634 22.634 0 0 1 5.7 10.201A22.334 22.334 0 0 1 80 48.376a22.03 22.03 0 0 1-.82 5.85z" fill="#25a2f7" fill-rule="evenodd"/><path d="M40.11 65.138l-.111.108-.11-.107a2.529 2.529 0 0 0 .111-.098l.038.034.073.063z" fill="#152244" fill-rule="evenodd"/><path d="M50.508 90.002H29.483c.04-.04.08-.08.118-.121 1.155-1.201 10.395-11.12 10.396-21.04 0 10.581 10.511 21.161 10.511 21.161z" fill="#0185ff" fill-rule="evenodd"/><path d="M35.453 40.779l2.508 1.433 2.495 1.453h-.91l2.495-1.454 2.507-1.434c1.676-.95 3.36-1.887 5.052-2.807a263.645 263.645 0 0 1 5.463-2.89c1.605-.816 3.21-1.632 4.852-2.391a141.056 141.056 0 0 1-4.399 3.041l-.356.24a261.015 261.015 0 0 1-4.844 3.14 327.047 327.047 0 0 1-4.905 3.042l-2.471 1.49-2.484 1.472-.455.27-.455-.27-2.483-1.472-2.471-1.492a326.283 326.283 0 0 1-4.904-3.043 263.053 263.053 0 0 1-5.131-3.331l-.027-.018c-1.5-.995-2.981-2.018-4.443-3.069 1.651.777 3.287 1.585 4.908 2.422l.008.004.285.145c1.717.884 3.418 1.792 5.113 2.711 1.692.921 3.376 1.857 5.052 2.807z" fill="#00a8fe" fill-rule="evenodd"/><path d="M66.787 39.339L47.07 69.452a23.604 23.604 0 0 1-6.953-4.315l18.919-18.3.971-.937 6.781-6.561zM13.228 39.339l19.719 30.113a23.603 23.603 0 0 0 6.952-4.315l-18.918-18.3-.972-.937-6.78-6.561z" fill="#1b80f9" fill-rule="evenodd"/></g></svg>